<?xml version="1.0" encoding="utf-8" standalone="no"?>
<!DOCTYPE svg PUBLIC "-//W3C//DTD SVG 1.1//EN"
  "http://www.w3.org/Graphics/SVG/1.1/DTD/svg11.dtd">
<svg xmlns:xlink="http://www.w3.org/1999/xlink" width="592.094107pt" height="198.211765pt" viewBox="0 0 592.094107 198.211765" xmlns="http://www.w3.org/2000/svg" version="1.1">
 <metadata>
  <rdf:RDF xmlns:dc="http://purl.org/dc/elements/1.1/" xmlns:cc="http://creativecommons.org/ns#" xmlns:rdf="http://www.w3.org/1999/02/22-rdf-syntax-ns#">
   <cc:Work>
    <dc:type rdf:resource="http://purl.org/dc/dcmitype/StillImage"/>
    <dc:date>2025-10-29T20:11:06.612964</dc:date>
    <dc:format>image/svg+xml</dc:format>
    <dc:creator>
     <cc:Agent>
      <dc:title>Matplotlib v3.8.4, https://matplotlib.org/</dc:title>
     </cc:Agent>
    </dc:creator>
   </cc:Work>
  </rdf:RDF>
 </metadata>
 <defs>
  <style type="text/css">*{stroke-linejoin: round; stroke-linecap: butt}</style>
 </defs>
 <g id="figure_1">
  <g id="patch_1">
   <path d="M 0 198.211765 
L 592.094107 198.211765 
L 592.094107 0 
L 0 0 
z
" style="fill: #ffffff"/>
  </g>
  <g id="axes_1">
   <g id="patch_2">
    <path d="M 191.011754 99.105882 
C 191.011754 88.743621 189.259258 78.455589 185.828526 68.677729 
C 182.397794 58.89987 177.337977 49.772269 170.863479 41.681698 
C 164.388982 33.591126 156.592563 26.653498 147.804586 21.162785 
C 139.016609 15.672072 129.36298 11.70694 119.252757 9.435407 
C 109.142535 7.163873 98.720568 6.618482 88.428475 7.822344 
C 78.136382 9.026206 68.121616 11.962073 58.808542 16.505541 
C 49.495467 21.049009 41.017511 27.134985 33.733917 34.505583 
C 26.450322 41.876181 20.46544 50.425802 16.032873 59.792169 
C 11.600306 69.158535 8.783559 79.207454 7.701988 89.513116 
C 6.620417 99.818778 7.289517 110.233534 9.680937 120.316072 
C 12.072356 130.39861 16.151833 140.004478 21.746505 148.72664 
C 27.341177 157.448802 34.37089 165.162296 42.537767 171.540271 
C 50.704645 177.918247 59.891681 182.869328 69.709587 186.183719 
C 79.527493 189.49811 89.835608 191.128325 100.197139 191.005286 
C 110.55867 190.882247 120.825168 189.007717 130.561603 185.461127 
C 140.298037 181.914536 149.364916 176.746698 157.37804 170.176591 
L 140.728849 149.870674 
C 135.005189 154.563608 128.528847 158.254921 121.574251 160.7882 
C 114.619655 163.321478 107.286442 164.660428 99.885349 164.748313 
C 92.484255 164.836198 85.121316 163.671759 78.108526 161.304337 
C 71.095736 158.936915 64.533567 155.400429 58.700083 150.844732 
C 52.866599 146.289035 47.845376 140.779396 43.849182 134.549281 
C 39.852987 128.319165 36.939075 121.457831 35.230918 114.256018 
C 33.522761 107.054205 33.044832 99.615093 33.817383 92.253906 
C 34.589934 84.892719 36.601896 77.71492 39.768016 71.024658 
C 42.934135 64.334397 47.209051 58.227524 52.411618 52.962811 
C 57.614186 47.698099 63.669869 43.350973 70.322065 40.105638 
C 76.974261 36.860304 84.127665 34.763256 91.47916 33.903355 
C 98.830655 33.043454 106.274917 33.433019 113.496504 35.055542 
C 120.718092 36.678066 127.613542 39.510303 133.890668 43.432241 
C 140.167794 47.354179 145.736665 52.309628 150.361306 58.088608 
C 154.985947 63.867587 158.600102 70.387302 161.050625 77.371487 
C 163.501148 84.355673 164.752931 91.704267 164.752931 99.105882 
z
" style="fill: #2f974e; stroke: #ffffff; stroke-linejoin: miter"/>
   </g>
   <g id="patch_3">
    <path d="M 157.37804 170.176591 
C 167.891888 161.556096 176.362998 150.708999 182.178873 138.419592 
C 187.994748 126.130185 191.011756 112.701974 191.011754 99.105874 
L 164.752931 99.105876 
C 164.752932 108.817376 162.597926 118.408956 158.44373 127.187104 
C 154.289533 135.965252 148.23874 143.713178 140.728849 149.870674 
z
" style="fill: #ffffff; stroke: #ffffff; stroke-linejoin: miter"/>
   </g>
   <g id="patch_4">
    <path d="M 164.752931 99.105882 
C 164.752931 90.920719 163.222088 82.80729 160.239512 75.184879 
C 157.256936 67.562469 152.874907 60.564682 147.319876 54.553148 
L 128.034274 72.374242 
C 131.367293 75.981162 133.996511 80.179834 135.786056 84.753281 
C 137.575601 89.326727 138.494107 94.194784 138.494107 99.105882 
z
" style="fill: #c54102; stroke: #ffffff; stroke-linejoin: miter"/>
   </g>
   <g id="patch_5">
    <path d="M 147.319876 54.553148 
C 139.146987 45.708625 128.695842 39.281207 117.115378 35.977489 
C 105.534913 32.673771 93.265635 32.61942 81.656356 35.820412 
C 70.047078 39.021404 59.539399 45.355978 51.288473 54.127747 
C 43.037547 62.899516 37.357228 73.774814 34.871977 85.558075 
C 32.386726 97.341335 33.191079 109.58434 37.196609 120.941163 
C 41.202139 132.297986 48.256482 142.336631 57.584125 149.953506 
C 66.911767 157.570381 78.157898 162.475753 90.086185 164.130351 
C 102.014471 165.78495 114.171176 164.125838 125.219863 159.335408 
L 114.774267 135.243598 
C 108.145054 138.117856 100.851031 139.113323 93.69406 138.120564 
C 86.537088 137.127804 79.789409 134.184582 74.192824 129.614457 
C 68.596238 125.044331 64.363632 119.021145 61.960314 112.207051 
C 59.556996 105.392957 59.074384 98.047154 60.565535 90.977198 
C 62.056686 83.907241 65.464877 77.382062 70.415433 72.119001 
C 75.365988 66.85594 81.670595 63.055195 88.636163 61.1346 
C 95.60173 59.214005 102.963297 59.246615 109.911575 61.228846 
C 116.859854 63.211077 123.130541 67.067528 128.034274 72.374242 
z
" style="fill: #f3701b; stroke: #ffffff; stroke-linejoin: miter"/>
   </g>
   <g id="patch_6">
    <path d="M 125.219863 159.335408 
C 128.060652 158.103715 130.810743 156.672579 133.449535 155.052725 
C 136.088326 153.43287 138.609211 151.628351 140.993304 149.652686 
L 124.238331 129.433965 
C 122.807875 130.619363 121.295344 131.702075 119.712069 132.673988 
C 118.128795 133.645901 116.47874 134.504582 114.774267 135.243598 
z
" style="fill: #fda762; stroke: #ffffff; stroke-linejoin: miter"/>
   </g>
   <g id="patch_7">
    <path d="M 140.993304 149.652686 
C 140.993304 149.652686 140.993304 149.652686 140.993304 149.652686 
L 124.238331 129.433965 
C 124.238331 129.433965 124.238331 129.433965 124.238331 129.433965 
z
" style="fill: #808080; stroke: #ffffff; stroke-linejoin: miter"/>
   </g>
   <g id="patch_8">
    <path d="M 140.993304 149.652686 
C 148.426437 143.492953 154.410151 135.768763 158.516829 127.032116 
C 162.623506 118.29547 164.752932 108.759564 164.752931 99.105872 
L 138.494107 99.105876 
C 138.494108 104.898092 137.216452 110.619635 134.752446 115.861623 
C 132.28844 121.10361 128.698211 125.738124 124.238331 129.433965 
z
" style="fill: #ffffff; stroke: #ffffff; stroke-linejoin: miter"/>
   </g>
   <g id="matplotlib.axis_1"/>
   <g id="matplotlib.axis_2"/>
  </g>
  <g id="axes_2">
   <g id="patch_9">
    <path d="M 387.952931 99.105882 
C 387.952931 89.125453 386.327208 79.211338 383.139725 69.753594 
C 379.952242 60.29585 375.245356 51.420159 369.204254 43.475724 
C 363.163151 35.531289 355.868111 28.623681 347.606146 23.024672 
C 339.344182 17.425662 330.225084 13.209654 320.607633 10.542521 
C 310.990181 7.875389 301.00218 6.792574 291.036593 7.33668 
C 281.071007 7.880785 271.260265 10.04458 261.990359 13.742933 
C 252.720453 17.441286 244.114569 22.62505 236.511293 29.090277 
C 228.908017 35.555504 222.408387 43.216279 217.268124 51.771199 
C 212.12786 60.326119 208.41527 69.6615 206.276421 79.410053 
C 204.137572 89.158607 203.600886 99.190786 204.687478 109.111889 
C 205.774071 119.032992 208.469502 128.71118 212.667725 137.765676 
C 216.865947 146.820172 222.511171 155.130653 229.381293 162.370156 
C 236.251415 169.609658 244.255139 175.681977 253.077569 180.348206 
C 261.9 185.014434 271.423898 188.212563 281.274557 189.816768 
C 291.125217 191.420972 301.171736 191.409933 311.018846 189.784085 
C 320.865957 188.158237 330.382803 184.939186 339.194958 180.253581 
L 326.866984 157.068525 
C 320.572588 160.415385 313.77484 162.714707 306.74119 163.876027 
C 299.707539 165.037347 292.531455 165.045232 285.495269 163.899372 
C 278.459083 162.753512 271.6563 160.469134 265.354563 157.136113 
C 259.052827 153.803093 253.335882 149.465722 248.428652 144.294649 
C 243.521422 139.123576 239.489119 133.187518 236.490389 126.72002 
C 233.491658 120.252523 231.56635 113.339532 230.790213 106.25303 
C 230.014075 99.166528 230.397422 92.000686 231.925172 85.037433 
C 233.452921 78.074181 236.104771 71.406052 239.776388 65.295394 
C 243.448005 59.184737 248.090597 53.712755 253.521509 49.094736 
C 258.95242 44.476716 265.099481 40.774028 271.720842 38.132347 
C 278.342203 35.490666 285.349876 33.945099 292.468152 33.556452 
C 299.586428 33.167805 306.720715 33.941244 313.590323 35.846339 
C 320.459931 37.751434 326.973572 40.762868 332.874976 44.76216 
C 338.776379 48.761453 343.987122 53.695458 348.302195 59.370055 
C 352.617268 65.044652 355.97933 71.38443 358.256103 78.139962 
C 360.532877 84.895493 361.694107 91.977004 361.694107 99.105882 
z
" style="fill: #2f974e; stroke: #ffffff; stroke-linejoin: miter"/>
   </g>
   <g id="patch_10">
    <path d="M 339.194958 180.253581 
C 353.918543 172.424747 366.237483 160.734355 374.825973 146.440566 
C 383.414463 132.146776 387.952931 115.781451 387.952931 99.105882 
L 361.694107 99.105882 
C 361.694107 111.017003 358.452345 122.706521 352.317709 132.91637 
C 346.183073 143.12622 337.38383 151.4765 326.866984 157.068525 
z
" style="fill: #ffffff; stroke: #ffffff; stroke-linejoin: miter"/>
   </g>
   <g id="patch_11">
    <path d="M 361.694107 99.105882 
C 361.694107 87.367335 358.5456 75.840869 352.577988 65.732402 
C 346.610377 55.623936 338.039294 47.298729 327.761463 41.62778 
L 315.075697 64.619021 
C 321.242396 68.02159 326.385045 73.016714 329.965612 79.081794 
C 333.546179 85.146874 335.435284 92.062754 335.435284 99.105882 
z
" style="fill: #c54102; stroke: #ffffff; stroke-linejoin: miter"/>
   </g>
   <g id="patch_12">
    <path d="M 327.761463 41.62778 
C 318.411697 36.468905 307.942851 33.668444 297.26611 33.470143 
C 286.58937 33.271843 276.023753 35.681628 266.488869 40.489755 
C 256.953985 45.297883 248.734732 52.360688 242.546499 61.063439 
C 236.358265 69.766189 232.385952 79.848851 230.975302 90.433848 
C 229.564652 101.018846 230.757815 111.789904 234.450939 121.809531 
C 238.144064 131.829159 244.226802 140.797973 252.169723 147.935347 
C 260.112644 155.072721 269.678418 160.165392 280.034458 162.770105 
C 290.390499 165.374818 301.227372 165.413745 311.601858 162.883498 
L 305.379934 137.372452 
C 299.155243 138.8906 292.653119 138.867244 286.439494 137.304416 
C 280.22587 135.741588 274.486406 132.685985 269.720653 128.403561 
C 264.9549 124.121137 261.305258 118.739848 259.089383 112.728072 
C 256.873508 106.716295 256.157611 100.25366 257.004001 93.902662 
C 257.850391 87.551663 260.233778 81.502067 263.946719 76.280416 
C 267.659659 71.058766 272.59121 66.821083 278.312141 63.936206 
C 284.033071 61.05133 290.372442 59.605459 296.778486 59.724439 
C 303.18453 59.843419 309.465838 61.523696 315.075697 64.619021 
z
" style="fill: #f3701b; stroke: #ffffff; stroke-linejoin: miter"/>
   </g>
   <g id="patch_13">
    <path d="M 311.601858 162.883498 
C 314.305916 162.224001 316.965297 161.393201 319.563895 160.396128 
C 322.162493 159.399056 324.695052 158.237727 327.146234 156.919177 
L 314.70656 133.793859 
C 313.235851 134.584989 311.716315 135.281786 310.157156 135.88003 
C 308.597998 136.478274 307.002369 136.976754 305.379934 137.372452 
z
" style="fill: #fda762; stroke: #ffffff; stroke-linejoin: miter"/>
   </g>
   <g id="patch_14">
    <path d="M 327.146234 156.919177 
C 327.146234 156.919177 327.146234 156.919177 327.146234 156.919177 
L 314.70656 133.793859 
C 314.70656 133.793859 314.70656 133.793859 314.70656 133.793859 
z
" style="fill: #808080; stroke: #ffffff; stroke-linejoin: miter"/>
   </g>
   <g id="patch_15">
    <path d="M 327.146234 156.919177 
C 337.588662 151.301939 346.316664 142.959044 352.399094 132.780551 
C 358.481524 122.602057 361.694106 110.963276 361.694107 99.105887 
L 335.435284 99.105885 
C 335.435283 106.220319 333.507734 113.203587 329.858276 119.310683 
C 326.208818 125.417779 320.972017 130.423516 314.70656 133.793859 
z
" style="fill: #ffffff; stroke: #ffffff; stroke-linejoin: miter"/>
   </g>
   <g id="matplotlib.axis_3"/>
   <g id="matplotlib.axis_4"/>
  </g>
  <g id="axes_3">
   <g id="patch_16">
    <path d="M 584.894107 99.105882 
C 584.894107 89.38898 583.353104 79.733271 580.3286 70.499064 
C 577.304097 61.264858 572.834188 52.568461 567.085671 44.734385 
C 561.337154 36.900309 554.382433 30.027227 546.481027 24.371611 
C 538.579622 18.715996 529.831053 14.349081 520.561778 11.433821 
C 511.292504 8.518561 501.619272 7.091675 491.903047 7.206407 
C 482.186822 7.321139 472.549982 8.976045 463.352131 12.10937 
C 454.15428 15.242696 445.511267 19.814976 437.745613 25.655593 
C 429.979959 31.49621 423.189473 38.5316 417.627548 46.499233 
C 412.065622 54.466866 407.80231 63.266388 404.996701 72.569438 
C 402.191091 81.872488 400.878521 91.561893 401.107969 101.276086 
C 401.337417 110.990279 403.105995 120.606908 406.347705 129.767121 
C 409.589416 138.927334 414.263429 147.515757 420.195332 155.211906 
C 426.127235 162.908056 433.242313 169.614998 441.275063 175.082458 
C 449.307813 180.549918 458.15706 184.709033 467.492589 187.404601 
C 476.828118 190.10017 486.532346 191.298241 496.243152 190.954109 
C 505.953959 190.609976 515.549035 188.727974 524.670333 185.37833 
L 515.618302 160.729059 
C 509.103089 163.121662 502.249464 164.465949 495.313173 164.711758 
C 488.376883 164.957567 481.445292 164.101802 474.777057 162.176396 
C 468.108822 160.25099 461.787931 157.280194 456.050252 153.374865 
C 450.312574 149.469536 445.230375 144.678864 440.993301 139.181614 
C 436.756228 133.684364 433.417647 127.549776 431.102139 121.006767 
C 428.786632 114.463758 427.523362 107.594737 427.359471 100.656028 
C 427.195579 93.717319 428.133129 86.796315 430.137136 80.151279 
C 432.141143 73.506243 435.186366 67.220871 439.15917 61.529704 
C 443.131974 55.838538 447.982321 50.813259 453.529216 46.64139 
C 459.076112 42.46952 465.249693 39.203606 471.819586 36.965516 
C 478.38948 34.727427 485.272937 33.545351 492.213098 33.4634 
C 499.153259 33.381448 506.06271 34.400653 512.68362 36.482981 
C 519.304531 38.56531 525.553509 41.684535 531.19737 45.72426 
C 536.84123 49.763985 541.808888 54.67333 545.914972 60.269098 
C 550.021056 65.864867 553.213848 72.076579 555.374207 78.672441 
C 557.534567 85.268303 558.635284 92.165238 558.635284 99.105882 
z
" style="fill: #2f974e; stroke: #ffffff; stroke-linejoin: miter"/>
   </g>
   <g id="patch_17">
    <path d="M 524.670333 185.37833 
C 542.330346 178.892987 557.580301 167.138894 568.348907 151.712525 
C 579.117513 136.286155 584.894111 117.919045 584.894107 99.105865 
L 558.635284 99.10587 
C 558.635286 112.543856 554.509145 125.66322 546.817283 136.682055 
C 539.125422 147.700891 528.232597 156.096671 515.618302 160.729059 
z
" style="fill: #ffffff; stroke: #ffffff; stroke-linejoin: miter"/>
   </g>
   <g id="patch_18">
    <path d="M 558.635284 99.105882 
C 558.635284 89.481235 556.51865 79.973312 552.435756 71.25759 
C 548.352861 62.541867 542.402739 54.829749 535.008105 48.66913 
L 518.200153 68.843831 
C 522.636933 72.540202 526.207007 77.167473 528.656743 82.396907 
C 531.10648 87.62634 532.37646 93.331094 532.37646 99.105882 
z
" style="fill: #c54102; stroke: #ffffff; stroke-linejoin: miter"/>
   </g>
   <g id="patch_19">
    <path d="M 535.008105 48.66913 
C 526.687289 41.736889 516.77888 36.970281 506.169296 34.79573 
C 495.559713 32.621179 484.575062 33.105527 474.198046 36.205441 
C 463.82103 39.305356 454.370607 44.925555 446.692224 52.563249 
C 439.013842 60.200944 433.343511 69.621373 430.188506 79.981772 
C 427.033501 90.342171 426.490798 101.324093 428.608948 111.945081 
C 430.727098 122.566068 435.440995 132.499663 442.328928 140.857193 
C 449.216861 149.214724 458.067115 155.739303 468.087935 159.847235 
C 478.108755 163.955166 488.99213 165.520184 499.76442 164.40228 
L 497.053942 138.283721 
C 490.590568 138.954463 484.060543 138.015453 478.048051 135.550694 
C 472.035559 133.085935 466.725407 129.171187 462.592647 124.156669 
C 458.459887 119.142151 455.631549 113.181994 454.360659 106.809401 
C 453.089769 100.436809 453.41539 93.847656 455.308393 87.631416 
C 457.201396 81.415176 460.603595 75.762919 465.210625 71.180303 
C 469.817654 66.597686 475.487908 63.225566 481.714118 61.365618 
C 487.940327 59.505669 494.531118 59.215061 500.896868 60.519791 
C 507.262618 61.824521 513.207663 64.684487 518.200153 68.843831 
z
" style="fill: #f3701b; stroke: #ffffff; stroke-linejoin: miter"/>
   </g>
   <g id="patch_20">
    <path d="M 499.76442 164.40228 
C 502.529563 164.115324 505.273687 163.653013 507.980215 163.018139 
C 510.686743 162.383265 513.350212 161.577109 515.95453 160.604542 
L 506.768008 136.005078 
C 505.205417 136.588618 503.607336 137.072312 501.983419 137.453236 
C 500.359502 137.834161 498.713027 138.111548 497.053942 138.283721 
z
" style="fill: #fda762; stroke: #ffffff; stroke-linejoin: miter"/>
   </g>
   <g id="patch_21">
    <path d="M 515.95453 160.604542 
C 515.95453 160.604542 515.95453 160.604542 515.95453 160.604542 
L 506.768008 136.005078 
C 506.768008 136.005078 506.768008 136.005078 506.768008 136.005078 
z
" style="fill: #808080; stroke: #ffffff; stroke-linejoin: miter"/>
   </g>
   <g id="patch_22">
    <path d="M 515.95453 160.604542 
C 528.486078 155.924711 539.292798 147.524508 546.919693 136.534922 
C 554.546588 125.545337 558.635283 112.482749 558.635284 99.105884 
L 532.37646 99.105883 
C 532.37646 107.132002 529.923243 114.969555 525.347106 121.563306 
C 520.770969 128.157058 514.286937 133.19718 506.768008 136.005078 
z
" style="fill: #ffffff; stroke: #ffffff; stroke-linejoin: miter"/>
   </g>
   <g id="matplotlib.axis_5"/>
   <g id="matplotlib.axis_6"/>
  </g>
 </g>
</svg>
